# xmcd CD database file
#
# Track frame offsets:
#	182
#	22020
#	68760
#	93655
#	113105
#	132832
#	164355
#	179987
#	203110
#	231750
#	248662
#	262630
#	280510
#
# Disc length: 3920 seconds
#
# Revision: 0
# Processed by: cddbd v1.4PL0 Copyright (c) Steve Scherf et al.
# Submitted via: CDex 1.50
#
DISCID=b10f4e0d
DTITLE=George Mox and the New Look Trio - Jazzy Tunes
DYEAR=1992
DGENRE=Jazz
TTITLE0=Havane Khonskitt
TTITLE1=Melancolie
TTITLE2=Evening melodie
TTITLE3=Our own samba
TTITLE4=Yolande
TTITLE5=Antverpiana
TTITLE6=Jack the fisherman
TTITLE7=Marchons! Les enfants!
TTITLE8=De Meir
TTITLE9=Semper
TTITLE10=Moxy
TTITLE11=A moment of sadness
TTITLE12=Hodie
EXTD=YEAR: 1992
EXTT0=
EXTT1=
EXTT2=
EXTT3=
EXTT4=
EXTT5=
EXTT6=
EXTT7=
EXTT8=
EXTT9=
EXTT10=
EXTT11=
EXTT12=
PLAYORDER=
